<?xml version="1.0" encoding="UTF-8"?>
<!-- Generator: visioncortex VTracer 0.6.2 -->
<svg version="1.1" xmlns="http://www.w3.org/2000/svg" width="1280" height="1280">
<path d="M0 0 C0.70079681 -0.00175232 1.40159363 -0.00350464 2.12362671 -0.00531006 C4.45093224 -0.00972813 6.77816239 -0.00679076 9.10546875 -0.00341797 C10.71590184 -0.00409102 12.32633484 -0.00506106 13.93676758 -0.00631714 C17.3162533 -0.00779405 20.69571265 -0.00563978 24.07519531 -0.00097656 C28.4167338 0.00472073 32.75821048 0.00144169 37.0997467 -0.00454903 C40.42647776 -0.00815482 43.75319405 -0.00701597 47.07992554 -0.00442123 C48.68118293 -0.00375202 50.28244165 -0.00458021 51.88369751 -0.00690079 C54.11781386 -0.00942762 56.35182875 -0.00558632 58.5859375 0 C60.49669067 0.00119339 60.49669067 0.00119339 62.44604492 0.00241089 C65.29296875 0.12939453 65.29296875 0.12939453 66.29296875 1.12939453 C68.43554273 1.3171305 70.58267116 1.45360919 72.73046875 1.56689453 C80.06419913 2.04388513 86.87169687 3.12660794 93.91796875 5.19189453 C96.4922821 5.90698157 98.67194635 6.34319094 101.29296875 6.62939453 C105.95610037 7.14351156 110.307266 8.30146863 114.64453125 10.10986328 C117.4047643 11.17243087 120.09761585 11.85007545 122.98046875 12.50439453 C127.77342662 13.66898381 132.18365118 15.17357646 136.71875 17.09423828 C139.60148294 18.25345562 142.51878731 19.19122215 145.48046875 20.12939453 C148.83284364 21.22265309 151.89583331 22.30900236 154.91796875 24.12939453 C157.56356085 25.69715281 159.7075944 26.7118342 162.54296875 27.75439453 C182.00215959 35.33818794 200.62190017 47.14718007 217.54296875 59.25439453 C218.32422119 59.81102783 219.10547363 60.36766113 219.91040039 60.94116211 C220.9737561 61.71882935 220.9737561 61.71882935 222.05859375 62.51220703 C222.99880371 63.19887451 222.99880371 63.19887451 223.95800781 63.89941406 C224.61881348 64.50825439 224.61881348 64.50825439 225.29296875 65.12939453 C225.29296875 65.78939453 225.29296875 66.44939453 225.29296875 67.12939453 C226.03546875 67.39751953 226.77796875 67.66564453 227.54296875 67.94189453 C230.18358824 69.08216204 232.14849719 70.22319759 234.29296875 72.12939453 C234.29296875 72.78939453 234.29296875 73.44939453 234.29296875 74.12939453 C235.09734375 74.45617187 235.09734375 74.45617187 235.91796875 74.78955078 C239.12715554 76.59999662 241.63829808 79.04692868 244.29296875 81.56689453 C248.32581739 85.39063918 248.32581739 85.39063918 252.66796875 88.85205078 C253.47234375 89.48433594 253.47234375 89.48433594 254.29296875 90.12939453 C254.29296875 90.78939453 254.29296875 91.44939453 254.29296875 92.12939453 C255.28296875 92.45939453 256.27296875 92.78939453 257.29296875 93.12939453 C257.29296875 93.78939453 257.29296875 94.44939453 257.29296875 95.12939453 C257.95296875 95.12939453 258.61296875 95.12939453 259.29296875 95.12939453 C260.703125 96.52783203 260.703125 96.52783203 262.35546875 98.50439453 C265.98101399 102.78773912 269.75496423 106.91311586 273.5703125 111.02783203 C275.29296875 113.12939453 275.29296875 113.12939453 275.29296875 115.12939453 C275.95296875 115.12939453 276.61296875 115.12939453 277.29296875 115.12939453 C278.58203125 116.59033203 278.58203125 116.59033203 279.91796875 118.50439453 C280.36398437 119.13087891 280.81 119.75736328 281.26953125 120.40283203 C282.29296875 122.12939453 282.29296875 122.12939453 282.29296875 124.12939453 C282.95296875 124.12939453 283.61296875 124.12939453 284.29296875 124.12939453 C286.38987603 126.38317663 288.1147587 128.94989486 289.91796875 131.44189453 C290.43359375 132.1321875 290.94921875 132.82248047 291.48046875 133.53369141 C291.96773437 134.20078125 292.455 134.86787109 292.95703125 135.55517578 C293.62919678 136.47423706 293.62919678 136.47423706 294.31494141 137.41186523 C295.29296875 139.12939453 295.29296875 139.12939453 295.29296875 142.12939453 C295.95296875 142.12939453 296.61296875 142.12939453 297.29296875 142.12939453 C298.97635685 144.51520357 300.52576152 146.89025703 302.04296875 149.37939453 C302.49470459 150.11230713 302.94644043 150.84521973 303.41186523 151.6003418 C306.45145687 156.59220477 309.20145364 161.65694275 311.7265625 166.93017578 C313.31264912 170.16958961 314.99849483 173.3382623 316.70996094 176.51245117 C319.95991564 182.54404657 323.06146844 188.49090968 325.4609375 194.92236328 C326.35987864 197.30687852 327.37215828 199.61829382 328.41796875 201.94189453 C330.26767957 206.06761672 331.99644818 210.08168851 333.23046875 214.44189453 C333.99088432 217.08098387 334.80015126 219.52248789 335.79296875 222.06689453 C337.03736058 225.31475722 337.96904126 228.5631949 338.765625 231.95361328 C339.36005889 234.40620346 340.04423877 236.82592264 340.73046875 239.25439453 C342.53152692 245.82188949 343.94014584 252.4569968 345.29296875 259.12939453 C345.49019531 260.07943359 345.68742188 261.02947266 345.890625 262.00830078 C347.09169551 268.12041517 347.68069304 274.16177427 348.046875 280.37939453 C348.19442876 283.2177923 348.19442876 283.2177923 349.29296875 286.12939453 C350.64971878 296.0567538 350.42882887 306.11101701 350.40649414 316.10693359 C350.40621154 317.89193215 350.40637142 319.67693083 350.40693665 321.46192932 C350.40722179 326.27305909 350.40137106 331.08416358 350.39436269 335.89528751 C350.38808179 340.93611076 350.38752162 345.97693468 350.38633728 351.01776123 C350.38323787 360.54780394 350.37504333 370.07783509 350.36498779 379.60787272 C350.35378334 390.46404929 350.34830531 401.32022642 350.34329236 412.17640734 C350.33285947 434.49407617 350.31528711 456.81173462 350.29296875 479.12939453 C350.91920639 479.1227327 351.54544403 479.11607086 352.19065857 479.10920715 C358.7947773 479.04208309 365.39879691 478.99727945 372.00317383 478.96459961 C374.45764105 478.94964805 376.91208219 478.92927944 379.36645508 478.90307617 C413.35400081 478.54968885 413.35400081 478.54968885 428.109375 485.16845703 C430.29041104 486.12826896 432.4490532 486.82277653 434.73046875 487.50439453 C445.43451827 491.00343357 456.69202949 497.88544801 465.29296875 505.12939453 C465.29296875 505.78939453 465.29296875 506.44939453 465.29296875 507.12939453 C465.87175781 507.39236328 466.45054687 507.65533203 467.046875 507.92626953 C473.1449036 511.19269181 478.1979248 516.62667922 482.29296875 522.12939453 C482.29296875 522.78939453 482.29296875 523.44939453 482.29296875 524.12939453 C482.95296875 524.12939453 483.61296875 524.12939453 484.29296875 524.12939453 C490.32464742 531.03050436 494.41115802 538.89948951 498.29296875 547.12939453 C498.97842801 548.40132976 499.66570455 549.67228871 500.35546875 550.94189453 C509.73246034 569.89123171 510.73841965 589.58491106 510.67391968 610.26855469 C510.677381 612.69634524 510.68214875 615.12413422 510.68810141 617.55191994 C510.6979788 622.80733875 510.69864679 628.06267337 510.69095993 633.31809235 C510.6795602 641.13339315 510.68544068 648.94861654 510.69458485 656.76391691 C510.71034438 670.72619511 510.70902797 684.68843201 510.70034811 698.6507141 C510.69278971 710.86962518 510.69083681 723.08852115 510.69441605 735.30743408 C510.69475978 736.5250592 510.69475978 736.5250592 510.69511046 737.7672828 C510.69604453 741.06276694 510.69699974 744.35825107 510.69798975 747.6537352 C510.70715863 778.54306857 510.69885924 809.4323757 510.68269906 840.32170501 C510.66846314 867.74133953 510.66973706 895.16093225 510.68408203 922.58056641 C510.70015964 953.41482624 510.70650828 984.2490629 510.69724524 1015.08332634 C510.69628314 1018.37266921 510.69534462 1021.6620121 510.69441605 1024.95135498 C510.6940602 1026.16615954 510.6940602 1026.16615954 510.69369716 1027.40550561 C510.6902904 1039.61419517 510.694265 1051.82286794 510.70185471 1064.03155518 C510.71044511 1077.91886159 510.7082611 1091.80612038 510.69201247 1105.69342089 C510.68322688 1113.45753407 510.68259479 1121.22154405 510.693951 1128.98565448 C510.70150562 1134.79305784 510.69326635 1140.60035539 510.67902727 1146.40774226 C510.67568876 1148.74938889 510.67735246 1151.09104942 510.68465464 1153.43268704 C510.75675081 1178.48274183 506.80322228 1200.58804585 493.29296875 1222.12939453 C492.59849932 1223.35463702 491.91024078 1224.58343722 491.23046875 1225.81689453 C489.09811567 1229.46253044 486.88165685 1232.79134935 484.29296875 1236.12939453 C483.63296875 1236.12939453 482.97296875 1236.12939453 482.29296875 1236.12939453 C482.03 1236.70818359 481.76703125 1237.28697266 481.49609375 1237.88330078 C478.22967147 1243.98132938 472.79568406 1249.03435058 467.29296875 1253.12939453 C466.63296875 1253.12939453 465.97296875 1253.12939453 465.29296875 1253.12939453 C465.29296875 1253.78939453 465.29296875 1254.44939453 465.29296875 1255.12939453 C458.3917145 1261.16119943 450.52269746 1265.24700839 442.29296875 1269.12939453 C440.97932377 1269.83560217 439.66668737 1270.543692 438.35546875 1271.25439453 C433.77667959 1273.57289159 428.86952326 1274.88058261 423.953125 1276.29736328 C421.3964927 1276.87127565 421.3964927 1276.87127565 420.29296875 1278.12939453 C412.67324887 1280.32589719 405.07626722 1280.41380922 397.20674706 1280.38666344 C395.91346141 1280.39016951 394.62017576 1280.39367559 393.28769964 1280.39728791 C389.70705155 1280.40670537 386.12650574 1280.40375848 382.54585276 1280.39873236 C378.64677464 1280.39545669 374.74771797 1280.40375578 370.84864676 1280.41055071 C364.01781809 1280.4208462 357.18701776 1280.42369529 350.3561821 1280.42163849 C340.19816037 1280.41858734 330.04016998 1280.42691504 319.88215435 1280.43738774 C300.68332426 1280.45672836 281.48450484 1280.46235599 262.28566615 1280.46350186 C247.45861674 1280.46442101 232.63157152 1280.46853805 217.80452347 1280.47490311 C213.53624809 1280.4766982 209.26797271 1280.47847783 204.99969733 1280.48025286 C203.93858304 1280.48069496 202.87746876 1280.48113705 201.78419949 1280.48159255 C171.93722051 1280.49390082 142.09024297 1280.50179369 112.24326134 1280.50090599 C110.55534754 1280.50085925 110.55534754 1280.50085925 108.83333448 1280.50081157 C103.1299996 1280.50064536 97.42666471 1280.50044728 91.72332983 1280.50024216 C90.59063236 1280.50020227 89.45793489 1280.50016238 88.29091325 1280.50012128 C86.00032267 1280.5000404 83.70973209 1280.49995681 81.4191415 1280.4998705 C45.78348036 1280.49864506 10.14785728 1280.51365683 -25.48779297 1280.54101562 C-65.52693509 1280.57174249 -105.56605219 1280.58894775 -145.60520685 1280.58708918 C-149.87536836 1280.58693992 -154.14552986 1280.58684251 -158.41569138 1280.58678055 C-159.46710827 1280.58675724 -160.51852516 1280.58673393 -161.60180318 1280.58670992 C-178.51549197 1280.58664839 -195.42914769 1280.59941544 -212.34282666 1280.61664508 C-229.34440665 1280.63360594 -246.34593832 1280.63557184 -263.34752209 1280.62242644 C-273.44449762 1280.6150403 -283.54132623 1280.61868521 -293.63828616 1280.63831112 C-300.38871491 1280.65032221 -307.13903741 1280.64770748 -313.88946131 1280.63337012 C-317.73177945 1280.62561666 -321.57381357 1280.62402745 -325.41611154 1280.64028482 C-354.56910114 1280.75557846 -354.56910114 1280.75557846 -367.70703125 1276.12939453 C-369.48176046 1275.53045319 -369.48176046 1275.53045319 -371.29234278 1274.91941202 C-378.08695552 1272.55229771 -384.12991383 1269.35389053 -390.24609375 1265.58251953 C-392.70898638 1264.01204261 -392.70898638 1264.01204261 -395.70703125 1263.12939453 C-395.70703125 1262.46939453 -395.70703125 1261.80939453 -395.70703125 1261.12939453 C-396.2896875 1261.01466797 -396.87234375 1260.89994141 -397.47265625 1260.78173828 C-399.8722626 1260.08115391 -401.43564058 1259.14746858 -403.45703125 1257.69189453 C-404.070625 1257.26005859 -404.68421875 1256.82822266 -405.31640625 1256.38330078 C-405.7753125 1255.96951172 -406.23421875 1255.55572266 -406.70703125 1255.12939453 C-406.70703125 1254.46939453 -406.70703125 1253.80939453 -406.70703125 1253.12939453 C-407.57521484 1252.73494141 -407.57521484 1252.73494141 -408.4609375 1252.33251953 C-414.5589661 1249.06609725 -419.6119873 1243.63210985 -423.70703125 1238.12939453 C-423.70703125 1237.46939453 -423.70703125 1236.80939453 -423.70703125 1236.12939453 C-424.36703125 1236.12939453 -425.02703125 1236.12939453 -425.70703125 1236.12939453 C-431.05236488 1230.01356236 -434.94505139 1223.13174115 -438.40234375 1215.82470703 C-439.73072733 1212.95343103 -439.73072733 1212.95343103 -441.83203125 1209.75439453 C-444.97410988 1204.3959119 -446.16150887 1198.0879581 -447.70703125 1192.12939453 C-448.14402344 1190.46457031 -448.14402344 1190.46457031 -448.58984375 1188.76611328 C-450.72412067 1180.44657753 -451.85491306 1172.83580677 -451.83845901 1164.25278664 C-451.84051165 1163.25789339 -451.84256428 1162.26300014 -451.84467912 1161.23795861 C-451.8503533 1157.88955322 -451.84889134 1154.5411889 -451.84747314 1151.19277954 C-451.85005655 1148.7736212 -451.85306964 1146.35446328 -451.85647655 1143.93530595 C-451.86370546 1137.97440251 -451.86624933 1132.01351291 -451.8668056 1126.05260643 C-451.86771981 1118.91251594 -451.8743891 1111.77243372 -451.88115242 1104.63234679 C-451.89721011 1087.37376153 -451.90311573 1070.11517715 -451.90790117 1052.85658576 C-451.91023765 1044.68983048 -451.91384039 1036.5230759 -451.91759655 1028.35632116 C-451.9304327 1000.39373533 -451.94115116 972.43114989 -451.94459915 944.46856117 C-451.94482078 942.71328875 -451.94504257 940.95801633 -451.9452645 939.20274391 C-451.94548514 937.44325556 -451.94570563 935.68376721 -451.94592595 933.92427886 C-451.9463685 930.39450622 -451.94681562 926.86473358 -451.94726562 923.33496094 C-451.94737502 922.4597829 -451.94748441 921.58460486 -451.94759711 920.68290627 C-451.95122641 892.3157653 -451.96714131 863.94864991 -451.99045599 835.58151874 C-452.01506737 805.58173311 -452.02877263 775.58196209 -452.02996707 745.58216608 C-452.03013852 742.28705048 -452.03035395 738.99193489 -452.0306015 735.69681931 C-452.03065727 734.88548459 -452.03071304 734.07414988 -452.0307705 733.23822927 C-452.0319199 720.19614837 -452.04293258 707.15409377 -452.05748856 694.11202175 C-452.07187483 680.99483859 -452.07507855 667.87768904 -452.06704858 654.76050015 C-452.06260213 646.97421463 -452.06641332 639.18803781 -452.08228709 631.40176664 C-452.09322758 625.57745812 -452.08836503 619.75323053 -452.07751521 613.9289196 C-452.0755599 611.58024153 -452.07862891 609.23155248 -452.08735958 606.88288982 C-452.17463514 581.80783916 -448.23143391 559.69330322 -434.70703125 538.12939453 C-434.01256182 536.90415204 -433.32430328 535.67535184 -432.64453125 534.44189453 C-430.51217817 530.79625862 -428.29571935 527.46743971 -425.70703125 524.12939453 C-425.04703125 524.12939453 -424.38703125 524.12939453 -423.70703125 524.12939453 C-423.4440625 523.55060547 -423.18109375 522.97181641 -422.91015625 522.37548828 C-419.64373397 516.27745968 -414.20974656 511.22443849 -408.70703125 507.12939453 C-408.04703125 507.12939453 -407.38703125 507.12939453 -406.70703125 507.12939453 C-406.70703125 506.46939453 -406.70703125 505.80939453 -406.70703125 505.12939453 C-400.18009466 499.33507327 -392.68608615 495.38580775 -384.87109375 491.67236328 C-381.76066057 490.22560655 -381.76066057 490.22560655 -379.203125 488.55517578 C-376.24830803 486.86736953 -373.42563822 486.02525991 -370.14453125 485.12939453 C-368.91605469 484.79294922 -367.68757813 484.45650391 -366.421875 484.10986328 C-347.05001173 478.99699506 -347.05001173 478.99699506 -339.16064453 479.01586914 C-338.09999786 479.01594467 -337.0393512 479.0160202 -335.94656372 479.01609802 C-334.25404984 479.02383995 -334.25404984 479.02383995 -332.52734375 479.03173828 C-330.77549271 479.0338607 -330.77549271 479.0338607 -328.98825073 479.036026 C-325.26948451 479.04160955 -321.55077918 479.05415909 -317.83203125 479.06689453 C-315.30599045 479.07191165 -312.77994871 479.07647419 -310.25390625 479.08056641 C-304.07159392 479.0915736 -297.88931694 479.1082954 -291.70703125 479.12939453 C-291.70841394 477.7376352 -291.70841394 477.7376352 -291.70982456 476.31775951 C-291.73204899 453.71509824 -291.74846882 431.11243839 -291.75884342 408.50976849 C-291.76399417 397.57918089 -291.77101358 386.64860053 -291.7824707 375.71801758 C-291.79245487 366.18813361 -291.79889356 356.65825487 -291.80111974 347.12836581 C-291.80242051 342.08493165 -291.80546617 337.04151247 -291.81276131 331.99808311 C-291.81958045 327.24493044 -291.82163627 322.49179884 -291.82013893 317.73864174 C-291.82041262 316.00008657 -291.82238261 314.26153065 -291.82623672 312.52297974 C-291.87446729 289.63170265 -291.87446729 289.63170265 -289.70703125 283.12939453 C-289.4323148 279.77610965 -289.26198063 276.42279013 -289.0859375 273.06298828 C-287.30652386 254.59010645 -281.67674788 235.65463982 -275.70703125 218.12939453 C-275.29582031 216.92154297 -274.88460937 215.71369141 -274.4609375 214.46923828 C-264.22119853 185.15359929 -249.66533999 157.1252605 -231.58203125 131.87939453 C-231.02555908 131.09846436 -230.46908691 130.31753418 -229.89575195 129.51293945 C-229.377146 128.80371338 -228.85854004 128.0944873 -228.32421875 127.36376953 C-227.86644043 126.73696289 -227.40866211 126.11015625 -226.93701172 125.46435547 C-226.53111816 125.02381836 -226.12522461 124.58328125 -225.70703125 124.12939453 C-225.04703125 124.12939453 -224.38703125 124.12939453 -223.70703125 124.12939453 C-223.43890625 123.38689453 -223.17078125 122.64439453 -222.89453125 121.87939453 C-221.75426374 119.23877504 -220.61322819 117.27386609 -218.70703125 115.12939453 C-218.04703125 115.12939453 -217.38703125 115.12939453 -216.70703125 115.12939453 C-216.4853125 114.58927734 -216.26359375 114.04916016 -216.03515625 113.49267578 C-214.27384978 110.35858634 -211.91294299 107.90895054 -209.45703125 105.31689453 C-208.46251967 104.25404782 -207.46902355 103.19024998 -206.4765625 102.12548828 C-205.99912598 101.61356934 -205.52168945 101.10165039 -205.02978516 100.57421875 C-203.33841906 98.72676497 -201.73730583 96.81206642 -200.14453125 94.87939453 C-199.34015625 93.97189453 -198.53578125 93.06439453 -197.70703125 92.12939453 C-197.04703125 92.12939453 -196.38703125 92.12939453 -195.70703125 92.12939453 C-195.70703125 91.46939453 -195.70703125 90.80939453 -195.70703125 90.12939453 C-194.30859375 88.71923828 -194.30859375 88.71923828 -192.33203125 87.06689453 C-188.04868666 83.44134929 -183.92330992 79.66739905 -179.80859375 75.85205078 C-177.70703125 74.12939453 -177.70703125 74.12939453 -175.70703125 74.12939453 C-175.70703125 73.46939453 -175.70703125 72.80939453 -175.70703125 72.12939453 C-174.24609375 70.84033203 -174.24609375 70.84033203 -172.33203125 69.50439453 C-171.70554687 69.05837891 -171.0790625 68.61236328 -170.43359375 68.15283203 C-168.70703125 67.12939453 -168.70703125 67.12939453 -166.70703125 67.12939453 C-166.70703125 66.46939453 -166.70703125 65.80939453 -166.70703125 65.12939453 C-163.95364582 62.69227352 -160.88540464 60.63975494 -157.89453125 58.50439453 C-156.64446289 57.58787109 -156.64446289 57.58787109 -155.36914062 56.65283203 C-154.16547852 55.78658203 -154.16547852 55.78658203 -152.9375 54.90283203 C-152.19910889 54.37093262 -151.46071777 53.8390332 -150.69995117 53.29101562 C-148.70703125 52.12939453 -148.70703125 52.12939453 -145.70703125 52.12939453 C-145.70703125 51.46939453 -145.70703125 50.80939453 -145.70703125 50.12939453 C-138.93459954 45.27945956 -131.49450356 41.38841627 -124.01171875 37.76611328 C-120.74088323 36.14616047 -117.53082675 34.43981732 -114.31835938 32.70825195 C-107.57297367 29.07708417 -100.91791554 25.75049374 -93.70703125 23.12939453 C-91.49784595 22.27743378 -89.2895619 21.42313354 -87.08203125 20.56689453 C-82.29812202 18.73296919 -77.50752326 16.9194085 -72.70703125 15.12939453 C-71.70929688 14.72720703 -71.70929688 14.72720703 -70.69140625 14.31689453 C-66.34208461 12.59044625 -62.37016189 11.75712366 -57.70703125 11.12939453 C-57.13082031 10.82130859 -56.55460937 10.51322266 -55.9609375 10.19580078 C-52.85667706 8.72706057 -49.76688401 8.25302559 -46.39453125 7.62939453 C-41.39854737 6.69990916 -36.58145865 5.56406643 -31.70703125 4.12939453 C-24.68377268 2.36493056 -17.73922931 1.75649647 -10.515625 1.37548828 C-6.7248221 1.0433317 -4.20653574 0.00262726 0 0 Z M-0.44641113 109.62713623 C-2.70118854 110.12809642 -4.95273981 110.51889725 -7.234375 110.87548828 C-17.65195393 112.50779978 -27.69456418 114.4261668 -37.54296875 118.31689453 C-40.25501588 119.33513605 -43.00867852 120.18999838 -45.76953125 121.06689453 C-49.15809676 122.18227967 -52.27485902 123.28641836 -55.33203125 125.12939453 C-58.02504438 126.72525417 -60.18789943 127.71522639 -63.08203125 128.75439453 C-74.63994008 133.26565093 -85.14597635 140.56420871 -95.26953125 147.62939453 C-96.01404541 148.14566406 -96.75855957 148.66193359 -97.52563477 149.19384766 C-99.29246908 150.45171477 -101.00598827 151.78388869 -102.70703125 153.12939453 C-102.70703125 153.78939453 -102.70703125 154.44939453 -102.70703125 155.12939453 C-103.28324219 155.39880859 -103.85945313 155.66822266 -104.453125 155.94580078 C-106.74626306 157.14999633 -108.70622767 158.50450858 -110.76953125 160.06689453 C-111.44113281 160.57091797 -112.11273438 161.07494141 -112.8046875 161.59423828 C-114.57872598 163.02585455 -116.20588167 164.41312694 -117.70703125 166.12939453 C-117.70703125 166.78939453 -117.70703125 167.44939453 -117.70703125 168.12939453 C-118.36703125 168.12939453 -119.02703125 168.12939453 -119.70703125 168.12939453 C-121.37369792 169.46272786 -121.37369792 169.46272786 -122.70703125 171.12939453 C-122.70703125 171.78939453 -122.70703125 172.44939453 -122.70703125 173.12939453 C-123.36703125 173.12939453 -124.02703125 173.12939453 -124.70703125 173.12939453 C-126.37985306 174.74446816 -126.37985306 174.74446816 -128.08203125 176.81689453 C-128.69949219 177.54521484 -129.31695312 178.27353516 -129.953125 179.02392578 C-130.53191406 179.71873047 -131.11070312 180.41353516 -131.70703125 181.12939453 C-132.51140625 182.07814453 -133.31578125 183.02689453 -134.14453125 184.00439453 C-135.90449473 185.95834179 -135.90449473 185.95834179 -135.70703125 188.12939453 C-136.36703125 188.12939453 -137.02703125 188.12939453 -137.70703125 188.12939453 C-139.12559849 189.77243876 -139.12559849 189.77243876 -140.53515625 191.93408203 C-141.08469971 192.73998779 -141.63424316 193.54589355 -142.20043945 194.3762207 C-142.78011475 195.24351807 -143.35979004 196.11081543 -143.95703125 197.00439453 C-144.54895264 197.88264893 -145.14087402 198.76090332 -145.75073242 199.66577148 C-157.32549639 216.92464281 -166.92123476 235.11634944 -172.8125 255.12158203 C-173.99667739 259.10331387 -175.31697843 263.0297126 -176.70556641 266.94458008 C-177.66923013 270.00918108 -178.26242777 272.90594242 -178.7421875 276.07861328 C-178.99645508 277.72120117 -178.99645508 277.72120117 -179.25585938 279.39697266 C-179.42537109 280.52554688 -179.59488281 281.65412109 -179.76953125 282.81689453 C-180.11232021 285.07114608 -180.45727181 287.32507015 -180.8046875 289.57861328 C-181.02910522 291.06880981 -181.02910522 291.06880981 -181.25805664 292.58911133 C-181.70703125 295.12939453 -181.70703125 295.12939453 -182.70703125 298.12939453 C-182.70703125 357.85939453 -182.70703125 417.58939453 -182.70703125 479.12939453 C-42.78703125 479.12939453 97.13296875 479.12939453 241.29296875 479.12939453 C247.70616163 362.4114058 247.70616163 362.4114058 230.29296875 251.12939453 C229.96296875 250.06462891 229.63296875 248.99986328 229.29296875 247.90283203 C227.27475124 241.49534272 227.27475124 241.49534272 224.29296875 235.50439453 C222.67578352 232.77539446 221.60937992 230.46422105 220.51953125 227.52783203 C218.39629268 222.14131497 215.68951652 217.30708167 212.66796875 212.37939453 C212.1467041 211.52120117 211.62543945 210.66300781 211.08837891 209.77880859 C207.76751136 204.37143179 204.32610633 199.06482158 200.66796875 193.87939453 C200.25466309 193.28932617 199.84135742 192.69925781 199.41552734 192.09130859 C198.42866073 190.72985578 197.36775645 189.42256539 196.29296875 188.12939453 C195.63296875 188.12939453 194.97296875 188.12939453 194.29296875 188.12939453 C194.02355469 187.55318359 193.75414062 186.97697266 193.4765625 186.38330078 C192.27236695 184.09016272 190.9178547 182.13019811 189.35546875 180.06689453 C188.59943359 179.05949219 188.59943359 179.05949219 187.828125 178.03173828 C186.39650873 176.2576998 185.00923634 174.63054411 183.29296875 173.12939453 C182.63296875 173.12939453 181.97296875 173.12939453 181.29296875 173.12939453 C181.29296875 172.46939453 181.29296875 171.80939453 181.29296875 171.12939453 C179.95963542 169.46272786 179.95963542 169.46272786 178.29296875 168.12939453 C177.63296875 168.12939453 176.97296875 168.12939453 176.29296875 168.12939453 C176.29296875 167.46939453 176.29296875 166.80939453 176.29296875 166.12939453 C174.67789512 164.45657272 174.67789512 164.45657272 172.60546875 162.75439453 C171.51298828 161.82820313 171.51298828 161.82820313 170.3984375 160.88330078 C169.70363281 160.30451172 169.00882813 159.72572266 168.29296875 159.12939453 C167.34421875 158.32501953 166.39546875 157.52064453 165.41796875 156.69189453 C163.46402149 154.93193105 163.46402149 154.93193105 161.29296875 155.12939453 C161.29296875 154.46939453 161.29296875 153.80939453 161.29296875 153.12939453 C159.666227 151.72725351 159.666227 151.72725351 157.5234375 150.33642578 C156.32207153 149.51972412 156.32207153 149.51972412 155.09643555 148.68652344 C153.80153198 147.82293213 153.80153198 147.82293213 152.48046875 146.94189453 C151.60624268 146.35327637 150.7320166 145.7646582 149.83129883 145.15820312 C147.32340323 143.47448655 144.80883023 141.80117391 142.29296875 140.12939453 C140.6996875 139.05625 140.6996875 139.05625 139.07421875 137.96142578 C129.61807909 131.73803266 119.56270697 126.68487746 108.84765625 123.02001953 C106.4048153 122.16838691 104.04884495 121.20196322 101.66796875 120.19189453 C87.03444225 114.37044483 72.20181467 111.72757377 56.65869141 109.53076172 C54.29296875 109.12939453 54.29296875 109.12939453 51.29296875 108.12939453 C49.88840517 108.03376351 48.47981843 107.99133549 47.07202148 107.98413086 C46.22361191 107.97775101 45.37520233 107.97137115 44.50108337 107.96479797 C43.58549149 107.96368515 42.6698996 107.96257233 41.7265625 107.96142578 C40.7778981 107.95809738 39.8292337 107.95476898 38.8518219 107.95133972 C36.84026575 107.94627371 34.82870119 107.9439313 32.81713867 107.9440918 C29.76661924 107.94192027 26.71647035 107.92380265 23.66601562 107.90478516 C21.70703248 107.90184803 19.74804762 107.89986537 17.7890625 107.89892578 C16.88764023 107.89174026 15.98621796 107.88455475 15.05747986 107.87715149 C9.70937601 107.89605397 4.77474213 108.45779721 -0.44641113 109.62713623 Z M6.29296875 697.12939453 C5.03484375 697.37689453 3.77671875 697.62439453 2.48046875 697.87939453 C-3.5937977 699.19197261 -9.06232362 701.57291463 -14.70703125 704.12939453 C-15.83625 704.62310547 -16.96546875 705.11681641 -18.12890625 705.62548828 C-26.21189259 709.37060529 -32.47375853 713.8445843 -39.0625 719.77392578 C-41.70703125 722.12939453 -41.70703125 722.12939453 -44.70703125 724.12939453 C-44.70703125 724.78939453 -44.70703125 725.44939453 -44.70703125 726.12939453 C-45.69703125 726.45939453 -46.68703125 726.78939453 -47.70703125 727.12939453 C-51.34716192 730.60874925 -51.34716192 730.60874925 -52.70703125 735.12939453 C-53.36703125 735.12939453 -54.02703125 735.12939453 -54.70703125 735.12939453 C-63.7739071 746.77822841 -72.35178586 762.22169527 -73.70703125 777.12939453 C-74.20203125 777.62439453 -74.20203125 777.62439453 -74.70703125 778.12939453 C-77.71447828 796.32444904 -78.33685061 820.27236006 -69.7265625 837.10595703 C-68.60352564 839.33481947 -67.79805815 841.59294717 -66.95703125 843.94189453 C-64.47227988 850.26223432 -60.57917977 855.5934322 -56.70703125 861.12939453 C-56.00578125 862.23798828 -55.30453125 863.34658203 -54.58203125 864.48876953 C-53.96328125 865.36017578 -53.34453125 866.23158203 -52.70703125 867.12939453 C-52.04703125 867.12939453 -51.38703125 867.12939453 -50.70703125 867.12939453 C-50.46984375 867.69142578 -50.23265625 868.25345703 -49.98828125 868.83251953 C-48.41755428 871.64833495 -46.49231661 873.60894869 -44.20703125 875.87939453 C-43.41296875 876.67861328 -42.61890625 877.47783203 -41.80078125 878.30126953 C-39.91919663 880.34863063 -39.91919663 880.34863063 -37.70703125 880.12939453 C-37.70703125 880.78939453 -37.70703125 881.44939453 -37.70703125 882.12939453 C-35.8032877 883.57903412 -33.83235966 884.94123776 -31.83203125 886.25439453 C-30.74148438 886.97884766 -29.6509375 887.70330078 -28.52734375 888.44970703 C-25.96774307 890.29995888 -25.96774307 890.29995888 -23.70703125 890.12939453 C-23.70648648 890.80801135 -23.70594172 891.48662817 -23.70538044 892.18580914 C-23.69037097 908.74740779 -23.64775667 925.30868673 -23.57494068 941.87012768 C-23.54038245 949.8793507 -23.51494726 957.88840326 -23.51147461 965.89770508 C-23.50842188 972.88388666 -23.48775698 979.86976393 -23.44650668 986.85582811 C-23.42529264 990.55022548 -23.41251556 994.2441915 -23.42087746 997.93865013 C-23.42991262 1002.07711418 -23.39960193 1006.21444169 -23.36645508 1010.3527832 C-23.37939354 1012.16217377 -23.37939354 1012.16217377 -23.39259338 1014.00811768 C-23.2444731 1025.10557651 -19.825521 1034.83053217 -13.51953125 1043.94189453 C-12.84535156 1044.93833984 -12.17117188 1045.93478516 -11.4765625 1046.96142578 C-10.89261719 1047.67685547 -10.30867188 1048.39228516 -9.70703125 1049.12939453 C-9.04703125 1049.12939453 -8.38703125 1049.12939453 -7.70703125 1049.12939453 C-7.21203125 1050.61439453 -7.21203125 1050.61439453 -6.70703125 1052.12939453 C-6.04703125 1052.12939453 -5.38703125 1052.12939453 -4.70703125 1052.12939453 C-4.70703125 1052.78939453 -4.70703125 1053.44939453 -4.70703125 1054.12939453 C-1.48588968 1056.44531475 -1.48588968 1056.44531475 2.29296875 1057.12939453 C2.29296875 1057.78939453 2.29296875 1058.44939453 2.29296875 1059.12939453 C14.8698439 1066.46590504 31.08878443 1067.0971692 45.04296875 1063.81689453 C49.05749328 1062.64599154 52.68230551 1061.23561475 56.29296875 1059.12939453 C56.29296875 1058.46939453 56.29296875 1057.80939453 56.29296875 1057.12939453 C56.89109375 1057.00564453 57.48921875 1056.88189453 58.10546875 1056.75439453 C60.55528223 1056.17463468 60.55528223 1056.17463468 63.29296875 1054.12939453 C63.29296875 1053.46939453 63.29296875 1052.80939453 63.29296875 1052.12939453 C64.28296875 1051.79939453 65.27296875 1051.46939453 66.29296875 1051.12939453 C66.29296875 1050.46939453 66.29296875 1049.80939453 66.29296875 1049.12939453 C66.95296875 1049.12939453 67.61296875 1049.12939453 68.29296875 1049.12939453 C70.18535035 1046.87699842 70.18535035 1046.87699842 72.10546875 1043.94189453 C72.77191406 1042.97896484 73.43835938 1042.01603516 74.125 1041.02392578 C79.98207553 1031.17707653 82.03350997 1021.69671674 81.95239258 1010.3527832 C81.96287628 1009.0439064 81.97335999 1007.7350296 81.98416138 1006.38648987 C82.01200561 1002.84173974 82.00989075 999.29760088 82.00186753 995.75277495 C81.99871664 992.03181639 82.02385163 988.31104392 82.04582214 984.59016418 C82.08309521 977.56403444 82.09540014 970.53809816 82.09844655 963.51187927 C82.10315568 955.50438272 82.13613807 947.4970778 82.1713444 939.48966634 C82.24305986 923.03625372 82.27976046 906.58296046 82.29296875 890.12939453 C83.45445435 889.67886719 83.45445435 889.67886719 84.6394043 889.21923828 C87.36963984 888.097905 89.64865511 886.75912166 92.10546875 885.12939453 C93.29076172 884.35595703 93.29076172 884.35595703 94.5 883.56689453 C95.09167969 883.09251953 95.68335938 882.61814453 96.29296875 882.12939453 C96.29296875 881.46939453 96.29296875 880.80939453 96.29296875 880.12939453 C96.855 879.89220703 97.41703125 879.65501953 97.99609375 879.41064453 C100.81190917 877.83991756 102.77252291 875.91467989 105.04296875 873.62939453 C105.8421875 872.83533203 106.64140625 872.04126953 107.46484375 871.22314453 C109.51220484 869.34155991 109.51220484 869.34155991 109.29296875 867.12939453 C109.95296875 867.12939453 110.61296875 867.12939453 111.29296875 867.12939453 C112.99077453 864.84862535 114.56306769 862.57491264 116.10546875 860.19189453 C116.55615723 859.50184326 117.0068457 858.81179199 117.47119141 858.10083008 C122.66381633 850.09200956 126.66881479 842.71271393 129.49609375 833.53564453 C130.29296875 831.12939453 130.29296875 831.12939453 131.29296875 830.12939453 C131.67053683 828.80790627 131.99482635 827.47103532 132.29296875 826.12939453 C132.45796875 825.40751953 132.62296875 824.68564453 132.79296875 823.94189453 C134.20477687 816.00047388 134.4482506 808.1843666 134.41796875 800.12939453 C134.42183594 799.10072266 134.42570313 798.07205078 134.4296875 797.01220703 C134.40227784 775.46821408 127.29817838 751.93564609 113.29296875 735.12939453 C112.63296875 735.12939453 111.97296875 735.12939453 111.29296875 735.12939453 C111.04546875 734.57251953 110.79796875 734.01564453 110.54296875 733.44189453 C109.06372057 730.7052854 107.35829436 728.45288584 105.29296875 726.12939453 C104.63296875 726.12939453 103.97296875 726.12939453 103.29296875 726.12939453 C102.96296875 725.13939453 102.63296875 724.14939453 102.29296875 723.12939453 C98.81361403 719.48926386 98.81361403 719.48926386 94.29296875 718.12939453 C94.29296875 717.46939453 94.29296875 716.80939453 94.29296875 716.12939453 C75.09604337 701.18745777 53.30518672 694.91396136 29.35546875 695.00439453 C28.33517578 695.00052734 27.31488281 694.99666016 26.26367188 694.99267578 C15.66382687 694.22308496 15.66382687 694.22308496 6.29296875 697.12939453 Z " fill="#000000" transform="translate(610.70703125,-0.12939453125)"/>
</svg>
